<svg version="1.2" xmlns="http://www.w3.org/2000/svg" viewBox="0 0 553 762" width="553" height="762"><style>.a{fill:none;stroke:#000;stroke-width:.8}.b{fill:none;stroke:#231f20;stroke-linecap:round;stroke-width:1.5}.c{fill:none;stroke:#231f20;stroke-linecap:round;stroke-width:.7}.d{fill:none;stroke:#231f20;stroke-linecap:round;stroke-width:2}.e{fill:none;stroke:#231f20;stroke-linecap:round}.f{fill:#fff;stroke:#000}.g{fill:none;stroke:#000}.h{fill:none;stroke:#5bb947;stroke-linecap:round;stroke-linejoin:round;stroke-width:.5}.i{fill:none;stroke:#231f20;stroke-width:.4}.j{fill:none;stroke:#231f20}</style><path class="a" d="m337.2 710.2v-43"/><path class="b" d="m347.7 670.6h11.3v43.2h-43.2v-43.2h10.7"/><path class="c" d="m315.8 708.7l19.4 0.1"/><path class="c" d="m315.8 705.7l19.4 0.1"/><path class="c" d="m315.8 702.7l19.4 0.1"/><path class="c" d="m315.8 699.7l19.4 0.1"/><path class="c" d="m335.2 696.8l-19.4-0.1"/><path class="d" d="m307.9 689.8l-2.9-17.3-295.9-0.8"/><path class="c" d="m335.2 693.7h-19.4"/><path class="c" d="m315.8 690.7h19.4"/><path class="c" d="m315.8 687.7h19.4"/><path class="c" d="m315.8 684.7h19.4"/><path class="c" d="m315.8 681.7h19.4"/><path class="c" d="m315.8 678.7h19.4"/><path class="c" d="m315.8 675.7h19.4"/><path class="c" d="m315.8 672.7h19.4"/><path class="c" d="m339.4 708.7h19.4"/><path class="c" d="m339.4 705.7h19.4"/><path class="c" d="m339.4 702.7h19.4"/><path class="c" d="m339.4 699.7h19.4"/><path class="c" d="m339.4 696.8l19.4-0.2"/><path class="c" d="m339.4 693.8l19.4-0.2"/><path class="c" d="m339.4 690.8l19.4-0.2"/><path class="c" d="m339.4 687.8l19.4-0.2"/><path class="c" d="m339.4 684.8l19.4-0.2"/><path class="c" d="m339.4 681.8l19.4-0.2"/><path class="c" d="m339.4 678.8l19.4-0.2"/><path class="c" d="m339.4 675.8l19.4-0.2"/><path class="c" d="m339.4 672.8l19.4-0.2"/><path class="c" d="m317.8 707.3h39.6"/><path class="c" d="m317.8 704.3h39.6"/><path class="c" d="m317.8 701.3h39.6"/><path class="c" d="m317.8 698.3h39.6"/><path class="c" d="m317.8 695.3h39.6"/><path class="c" d="m317.8 692.3h39.6"/><path class="c" d="m317.8 689.3h39.6"/><path class="c" d="m317.8 686.3h39.6"/><path class="c" d="m317.8 683.3h39.6"/><path class="c" d="m317.8 680.3h39.6"/><path class="c" d="m317.8 677.3h39.6"/><path class="c" d="m317.8 674.3h39.6"/><path class="c" d="m317.8 710.3h39.6"/><path class="c" d="m316.1 712h42.5"/><path  d="m336.3 661.2h1.8v13h-1.8z"/><path class="a" d="m335.8 556.9v43"/><path class="b" d="m325.4 596.5h-11.3v-43.2h43.2v43.2h-10.7"/><path class="c" d="m357.3 558.5l-19.5-0.1"/><path class="c" d="m357.3 561.5l-19.5-0.1"/><path class="c" d="m357.3 564.5l-19.5-0.1"/><path class="c" d="m357.3 567.5l-19.5-0.1"/><path class="c" d="m357.3 570.5l-19.5-0.1"/><path class="c" d="m357.3 573.4h-19.5"/><path class="c" d="m357.3 576.4h-19.5"/><path class="c" d="m357.3 579.4h-19.5"/><path class="c" d="m357.3 582.4h-19.5"/><path class="c" d="m357.3 585.4h-19.5"/><path class="c" d="m357.3 588.4h-19.5"/><path class="c" d="m357.3 591.4h-19.5"/><path class="c" d="m357.3 594.4h-19.5"/><path class="c" d="m333.6 558.4h-19.4"/><path class="c" d="m333.6 561.4h-19.4"/><path class="c" d="m333.6 564.4h-19.4"/><path class="c" d="m333.6 567.4h-19.4"/><path class="c" d="m333.6 570.3l-19.4 0.2"/><path class="c" d="m333.6 573.3l-19.4 0.2"/><path class="c" d="m333.6 576.3l-19.4 0.2"/><path class="c" d="m333.6 579.3l-19.4 0.2"/><path class="c" d="m333.6 582.3l-19.4 0.2"/><path class="c" d="m333.6 585.3l-19.4 0.2"/><path class="c" d="m333.6 588.3l-19.4 0.2"/><path class="c" d="m333.6 591.3l-19.4 0.2"/><path class="c" d="m333.6 594.3l-19.4 0.2"/><path class="c" d="m355.2 559.8h-39.6"/><path class="c" d="m355.2 562.8h-39.6"/><path class="c" d="m355.2 565.8h-39.6"/><path class="c" d="m355.2 568.8h-39.6"/><path class="c" d="m355.2 571.8h-39.6"/><path class="c" d="m355.2 574.8h-39.6"/><path class="c" d="m355.2 577.8h-39.6"/><path class="c" d="m355.2 580.8h-39.6"/><path class="c" d="m355.2 583.8h-39.6"/><path class="c" d="m355.2 586.8h-39.6"/><path class="c" d="m355.2 589.8h-39.6"/><path class="c" d="m355.2 592.8h-39.6"/><path class="c" d="m355.2 556.8h-39.6"/><path class="c" d="m356.9 555.1h-42.5"/><path  d="m336.7 605.9h-1.8v-13h1.8z"/><path  d="m358.3 741.2q0.1 0 0.2 0.1 0 0.1 0 0.2v2.7h0.4q0.1 0 0.2 0 0 0 0.1 0.1 0 0.1 0 0.3 0 0.2 0 0.2-0.1 0.1-0.1 0.2-0.1 0-0.2 0h-1q-0.2 0-0.2-0.1-0.1 0-0.1-0.2v-0.5q-0.6 0.9-1.5 0.9-0.4 0-0.7-0.2-0.3-0.1-0.5-0.4-0.2-0.3-0.2-0.7v-1.7h-0.3q-0.1 0-0.2-0.1 0 0-0.1-0.1 0-0.1 0-0.2 0-0.2 0-0.3 0.1-0.1 0.1-0.1 0.1-0.1 0.2-0.1h1.2q0.1 0 0.2 0.1 0.1 0.1 0.1 0.2v2q0 0.3 0.1 0.5 0.1 0.2 0.4 0.2 0.3 0 0.5-0.2 0.2-0.2 0.4-0.6 0.1-0.3 0.1-0.7v-0.6h-0.5q-0.1 0-0.1-0.1-0.1 0-0.1-0.1-0.1-0.1-0.1-0.2 0-0.2 0.1-0.3 0-0.1 0.1-0.1 0-0.1 0.1-0.1zm6.4 3q0.1 0 0.2 0.1 0.1 0 0.1 0.3 0 0.2-0.1 0.2 0 0.1 0 0.2-0.1 0-0.2 0h-0.8q-0.2 0-0.3-0.2l-1.2-1.4-0.6 0.4v0.4h0.4q0.1 0 0.2 0 0 0 0 0.1 0.1 0.1 0.1 0.3 0 0.2-0.1 0.2 0 0.1 0 0.2-0.1 0-0.2 0h-1.9q-0.1 0-0.2 0 0-0.1-0.1-0.2 0 0 0-0.2 0-0.2 0-0.3 0.1-0.1 0.1-0.1 0.1 0 0.2 0h0.4v-3.7h-0.5q-0.1 0-0.2 0 0-0.1 0-0.2-0.1 0-0.1-0.2 0-0.2 0.1-0.3 0-0.1 0-0.1 0.1 0 0.2 0h1.3q0.2 0 0.2 0 0.1 0.1 0.1 0.2v3l1.2-0.9h-0.3q-0.1 0-0.2-0.1 0-0.1 0-0.3 0-0.2 0-0.3 0.1-0.1 0.2-0.1h1.9q0.2 0 0.2 0.1 0.1 0.1 0.1 0.3 0 0.2-0.1 0.3 0 0.1-0.2 0.1h-0.2l-1.1 0.8 1.1 1.4zm3.5-3q1 0 1.4 0.3 0.4 0.4 0.4 1.1v1.2q0 0.2 0.1 0.3 0.1 0.1 0.2 0.1h0.2q0.1 0 0.2 0 0 0 0 0.1 0.1 0.1 0.1 0.3 0 0.2-0.1 0.2 0 0.1 0 0.2-0.1 0-0.2 0h-0.5q-0.3 0-0.5-0.1-0.2-0.1-0.3-0.3-0.4 0.2-0.8 0.4-0.4 0.1-0.8 0.1-0.5 0-0.9-0.2-0.4-0.1-0.6-0.4-0.2-0.3-0.2-0.7 0-0.6 0.5-0.9 0.4-0.3 1.2-0.3 0.6 0 1.3 0.1v-0.1q0-0.3-0.2-0.4-0.2-0.1-0.6-0.1-0.3 0-0.6 0-0.4 0.1-0.7 0.2-0.1 0-0.1 0-0.1 0-0.2-0.1-0.1 0-0.2-0.2-0.1-0.2-0.1-0.3 0-0.2 0.3-0.3 0.4-0.1 0.8-0.2 0.5 0 0.9 0zm-0.5 2.2q-0.3 0-0.4 0.1-0.2 0.1-0.2 0.3 0 0.2 0.2 0.3 0.1 0.1 0.4 0.1 0.3 0 0.6-0.1 0.3-0.1 0.6-0.3v-0.2q-0.6-0.2-1.2-0.2z"/><path  d="m372.7 740.1q0.2 0 0.3 0 0.2 0 0.2 0.1 0 0 0 0.1v1.2h1.7q0.2 0 0.2 0.1 0.1 0.1 0.1 0.3 0 0.3-0.1 0.4 0 0.1-0.2 0.1h-1.7v1.1q0 0.7 0.6 0.7 0.2 0 0.5-0.1 0.3-0.1 0.7-0.3 0.1 0 0.1 0 0.1 0 0.2 0.1 0.1 0.1 0.2 0.2 0 0.2 0 0.3 0 0.1 0 0.2-0.1 0-0.2 0.1-0.9 0.4-1.6 0.4-0.8 0-1.2-0.4-0.4-0.4-0.4-1.2v-1.1h-0.9q-0.1 0-0.2-0.1-0.1-0.1-0.1-0.4 0-0.2 0.1-0.3 0.1-0.1 0.2-0.1h0.9v-1.2q0-0.1 0.1-0.2 0.2 0 0.5 0z"/><path  d="m378.6 741.2q0.7 0 1.2 0.2 0.5 0.3 0.8 0.7 0.3 0.5 0.3 1 0 0.6-0.3 1-0.3 0.5-0.8 0.7-0.5 0.3-1.2 0.3-0.7 0-1.2-0.3-0.5-0.2-0.8-0.7-0.3-0.4-0.3-1 0-0.5 0.3-1 0.3-0.4 0.8-0.7 0.5-0.2 1.2-0.2zm0 0.9q-0.3 0-0.5 0.1-0.3 0.1-0.4 0.4-0.1 0.2-0.1 0.5 0 0.3 0.1 0.6 0.1 0.2 0.4 0.3 0.2 0.2 0.5 0.2 0.3 0 0.6-0.2 0.2-0.1 0.4-0.3 0.1-0.3 0.1-0.6 0-0.3-0.1-0.5-0.2-0.3-0.4-0.4-0.3-0.1-0.6-0.1z"/><path  d="m384.8 741.2q0.4 0 0.7 0.1 0.3 0.2 0.5 0.5 0.2 0.3 0.2 0.7v1.7h0.3q0.1 0 0.2 0 0 0 0.1 0.1 0 0.1 0 0.3 0 0.2 0 0.2-0.1 0.1-0.1 0.2-0.1 0-0.2 0h-1.7q-0.1 0-0.2 0 0-0.1 0-0.2-0.1 0-0.1-0.2 0-0.2 0.1-0.3 0-0.1 0-0.1 0.1 0 0.2 0h0.2v-1.5q0-0.3-0.1-0.5-0.1-0.1-0.4-0.1-0.3 0-0.5 0.2-0.2 0.2-0.4 0.5-0.1 0.3-0.1 0.7v0.7h0.2q0.1 0 0.2 0 0 0 0 0.1 0.1 0.1 0.1 0.3 0 0.2-0.1 0.2 0 0.1 0 0.2-0.1 0-0.2 0h-1.7q-0.1 0-0.2 0 0-0.1-0.1-0.2 0 0 0-0.2 0-0.2 0-0.3 0.1-0.1 0.1-0.1 0.1 0 0.2 0h0.3v-2.1h-0.4q-0.1 0-0.2-0.1 0 0-0.1-0.1 0-0.1 0-0.2 0-0.2 0-0.3 0.1-0.1 0.1-0.1 0.1-0.1 0.2-0.1h1.1q0.2 0 0.2 0.1 0.1 0.1 0.1 0.2v0.6q0.6-0.9 1.5-0.9z"/><path  d="m354.8 730.8l32.2-0.1c0.4 0 0.8-0.4 0.8-0.8v-0.2c0-0.4-0.4-0.8-0.8-0.8h-32.2c-0.4 0-0.8 0.4-0.8 0.8v0.3c0 0.4 0.4 0.8 0.8 0.8z"/><path  d="m369.6 730.4l-7.4 7.3-1.9-0.4 8.4-8.3z"/><path  d="m364.4 738.2l-5.2-0.1c-0.9 0-1.4-0.8-0.9-1.5 0.1-0.2 0.4-0.3 0.6-0.3h5.6c0.3 0 0.7 0.1 0.8 0.3 0.6 0.7 0 1.6-0.9 1.6z"/><path  d="m372.2 730.3l7.5 7.3 1.8-0.4-8.3-8.3z"/><path  d="m377.4 738.1h5.2c0.9-0.1 1.5-0.9 1-1.6-0.2-0.2-0.4-0.3-0.7-0.3l-5.6 0.1c-0.3 0-0.6 0-0.8 0.2-0.5 0.7 0 1.6 0.9 1.6z"/><path fill-rule="evenodd" d="m377.3 721.4c0 3.5-2.9 6.3-6.5 6.3-3.5 0-6.4-2.8-6.4-6.3 0-3.5 2.9-6.4 6.4-6.4 3.6 0 6.5 2.9 6.5 6.4zm-1.9 0.1c0-2.5-2-4.5-4.5-4.5-2.6 0-4.6 2-4.6 4.5 0 2.5 2 4.5 4.6 4.5 2.5 0 4.5-2 4.5-4.5z"/><path class="a" d="m408.3 710.2v-43"/><path class="b" d="m418.7 670.6h11.3v43.2h-43.2v-43.2h10.7"/><path class="c" d="m386.8 708.7l19.4 0.1"/><path class="c" d="m386.8 705.7l19.4 0.1"/><path class="c" d="m386.8 702.7l19.4 0.1"/><path class="c" d="m386.8 699.7l19.4 0.1"/><path class="c" d="m386.8 696.7l19.4 0.1"/><path class="c" d="m406.2 693.7h-19.4"/><path class="c" d="m386.8 690.7h19.4"/><path class="c" d="m386.8 687.7h19.4"/><path class="c" d="m386.8 684.7h19.4"/><path class="c" d="m386.8 681.7h19.4"/><path class="c" d="m386.8 678.7h19.4"/><path class="c" d="m386.8 675.7h19.4"/><path class="c" d="m386.8 672.7h19.4"/><path class="c" d="m410.4 708.7h19.5"/><path class="c" d="m410.4 705.7h19.5"/><path class="c" d="m410.4 702.7h19.5"/><path class="c" d="m410.4 699.7h19.5"/><path class="c" d="m410.4 696.8l19.5-0.2"/><path class="d" d="m429.5 580.7h12.5l1.1 80.5-7.9 29.6"/><path class="c" d="m429.9 693.6l-19.5 0.2"/><path class="c" d="m410.4 690.8l19.5-0.2"/><path class="c" d="m410.4 687.8l19.5-0.2"/><path class="c" d="m410.4 684.8l19.5-0.2"/><path class="c" d="m410.4 681.8l19.5-0.2"/><path class="c" d="m410.4 678.8l19.5-0.2"/><path class="c" d="m410.4 675.8l19.5-0.2"/><path class="c" d="m410.4 672.8l19.5-0.2"/><path class="c" d="m388.8 707.3h39.6"/><path class="c" d="m388.8 704.3h39.6"/><path class="c" d="m388.8 701.3h39.6"/><path class="c" d="m388.8 698.3h39.6"/><path class="c" d="m388.8 695.3h39.6"/><path class="c" d="m388.8 692.3h39.6"/><path class="c" d="m388.8 689.3h39.6"/><path class="c" d="m388.8 686.3h39.6"/><path class="c" d="m388.8 683.3h39.6"/><path class="c" d="m388.8 680.3h39.6"/><path class="c" d="m388.8 677.3h39.6"/><path class="c" d="m388.8 674.3h39.6"/><path class="c" d="m388.8 710.3h39.6"/><path class="c" d="m387.2 712h42.4"/><path  d="m407.4 661.2h1.8v13h-1.8z"/><path class="a" d="m407.5 556.8v43"/><path class="b" d="m397.1 596.4h-11.3v-43.2h43.2v43.2h-10.7"/><path class="c" d="m429 558.3l-19.5-0.1"/><path class="c" d="m429 561.3l-19.5-0.1"/><path class="c" d="m429 564.3l-19.5-0.1"/><path class="c" d="m429 567.3l-19.5-0.1"/><path class="c" d="m429 570.3l-19.5-0.1"/><path class="c" d="m429 573.3h-19.5"/><path class="c" d="m429 576.3h-19.5"/><path class="c" d="m429 579.3h-19.5"/><path class="c" d="m429 582.3h-19.5"/><path class="c" d="m429 585.3h-19.5"/><path class="c" d="m429 588.3h-19.5"/><path class="c" d="m429 591.3h-19.5"/><path class="c" d="m429 594.3h-19.5"/><path class="c" d="m405.3 558.3h-19.4"/><path class="c" d="m405.3 561.3h-19.4"/><path class="c" d="m405.3 564.3h-19.4"/><path class="c" d="m405.3 567.3h-19.4"/><path class="c" d="m405.3 570.2l-19.4 0.2"/><path class="c" d="m405.3 573.2l-19.4 0.2"/><path class="c" d="m405.3 576.2l-19.4 0.2"/><path class="c" d="m405.3 579.2l-19.4 0.2"/><path class="c" d="m405.3 582.2l-19.4 0.2"/><path class="c" d="m405.3 585.2l-19.4 0.2"/><path class="c" d="m405.3 588.2l-19.4 0.2"/><path class="c" d="m405.3 591.2l-19.4 0.2"/><path class="c" d="m405.3 594.2l-19.4 0.2"/><path class="c" d="m426.9 559.7h-39.6"/><path class="c" d="m426.9 562.7h-39.6"/><path class="c" d="m426.9 565.7h-39.6"/><path class="c" d="m426.9 568.7h-39.6"/><path class="c" d="m426.9 571.7h-39.6"/><path class="c" d="m426.9 574.7h-39.6"/><path class="c" d="m426.9 577.7h-39.6"/><path class="c" d="m426.9 580.7h-39.6"/><path class="c" d="m426.9 583.7h-39.6"/><path class="c" d="m426.9 586.7h-39.6"/><path class="c" d="m426.9 589.7h-39.6"/><path class="c" d="m426.9 592.7h-39.6"/><path class="c" d="m426.9 556.7h-39.6"/><path class="c" d="m428.6 555h-42.5"/><path  d="m408.4 605.8h-1.8v-13h1.8z"/><path class="a" d="m335.7 491.4v43"/><path class="b" d="m325.3 531h-11.3v-43.2h43.2v43.2h-10.7"/><path class="c" d="m357.1 493l-19.4-0.1"/><path class="c" d="m357.1 496l-19.4-0.1"/><path class="c" d="m357.1 499l-19.4-0.1"/><path class="c" d="m357.1 502l-19.4-0.1"/><path class="c" d="m357.1 505l-19.4-0.1"/><path class="c" d="m357.1 507.9l-19.4 0.1"/><path class="c" d="m357.1 510.9l-19.4 0.1"/><path class="c" d="m357.1 513.9l-19.4 0.1"/><path class="c" d="m357.1 516.9l-19.4 0.1"/><path class="c" d="m357.1 519.9l-19.4 0.1"/><path class="c" d="m357.1 522.9l-19.4 0.1"/><path class="c" d="m357.1 525.9l-19.4 0.1"/><path class="c" d="m357.1 528.9l-19.4 0.1"/><path class="c" d="m333.5 492.9h-19.4"/><path class="c" d="m333.5 495.9h-19.4"/><path class="c" d="m333.5 498.9h-19.4"/><path class="c" d="m333.5 501.9h-19.4"/><path class="c" d="m333.5 504.9l-19.4 0.1"/><path class="c" d="m333.5 507.9l-19.4 0.1"/><path class="c" d="m333.5 510.9l-19.4 0.1"/><path class="c" d="m333.5 513.9l-19.4 0.1"/><path class="c" d="m333.5 516.9l-19.4 0.1"/><path class="c" d="m333.5 519.9l-19.4 0.1"/><path class="c" d="m333.5 522.9l-19.4 0.1"/><path class="c" d="m333.5 525.9l-19.4 0.1"/><path class="c" d="m333.5 528.9l-19.4 0.1"/><path class="c" d="m355.1 494.4h-39.6"/><path class="c" d="m355.1 497.4h-39.6"/><path class="c" d="m355.1 500.4h-39.6"/><path class="c" d="m355.1 503.4h-39.6"/><path class="c" d="m355.1 506.4h-39.6"/><path class="c" d="m355.1 509.4h-39.6"/><path class="c" d="m355.1 512.4h-39.6"/><path class="c" d="m355.1 515.4h-39.6"/><path class="c" d="m355.1 518.4h-39.6"/><path class="c" d="m355.1 521.4h-39.6"/><path class="c" d="m355.1 524.4h-39.6"/><path class="c" d="m355.1 527.4h-39.6"/><path class="c" d="m355.1 491.4h-39.6"/><path class="c" d="m356.8 489.6h-42.5"/><path  d="m336.6 540.4h-1.8v-13h1.8z"/><path class="a" d="m407.5 491.7v43"/><path class="b" d="m397.1 531.3h-11.3v-43.2h43.2v43.2h-10.7"/><path class="c" d="m429 493.3l-19.5-0.1"/><path class="c" d="m429 496.3l-19.5-0.1"/><path class="c" d="m429 499.3l-19.5-0.1"/><path class="c" d="m429 502.3l-19.5-0.1"/><path class="c" d="m429 505.3l-19.5-0.1"/><path class="c" d="m429 508.2h-19.5"/><path class="c" d="m429 511.2h-19.5"/><path class="d" d="m442 580.7l0.7-69.5"/><path class="c" d="m429 514.2h-19.5"/><path class="c" d="m429 517.2h-19.5"/><path class="c" d="m429 520.2h-19.5"/><path class="c" d="m429 523.2h-19.5"/><path class="c" d="m429 526.2h-19.5"/><path class="c" d="m429 529.2h-19.5"/><path class="c" d="m405.4 493.2h-19.5"/><path class="c" d="m405.4 496.2h-19.5"/><path class="c" d="m405.4 499.2h-19.5"/><path class="c" d="m405.4 502.2h-19.5"/><path class="c" d="m405.4 505.1l-19.5 0.2"/><path class="c" d="m405.4 508.1l-19.5 0.2"/><path class="c" d="m405.4 511.1l-19.5 0.2"/><path class="c" d="m405.4 514.1l-19.5 0.2"/><path class="c" d="m405.4 517.1l-19.5 0.2"/><path class="c" d="m405.4 520.1l-19.5 0.2"/><path class="c" d="m405.4 523.1l-19.5 0.2"/><path class="c" d="m405.4 526.1l-19.5 0.2"/><path class="c" d="m405.4 529.1l-19.5 0.2"/><path class="c" d="m427 494.6h-39.6"/><path class="c" d="m427 497.6h-39.6"/><path class="c" d="m427 500.6h-39.6"/><path class="c" d="m427 503.6h-39.6"/><path class="c" d="m427 506.6h-39.6"/><path class="c" d="m427 509.6h-39.6"/><path class="c" d="m427 512.6h-39.6"/><path class="c" d="m427 515.6h-39.6"/><path class="c" d="m427 518.6h-39.6"/><path class="c" d="m427 521.6h-39.6"/><path class="c" d="m427 524.6h-39.6"/><path class="c" d="m427 527.6h-39.6"/><path class="c" d="m427 491.6h-39.6"/><path class="c" d="m428.6 489.9h-42.5"/><path  d="m408.4 540.7h-1.8v-13h1.8z"/><path class="a" d="m342.1 191.6v43"/><path class="b" d="m331.6 231.2h-11.3v-43.2h43.2v43.2h-10.7"/><path class="c" d="m363.5 193.2l-19.4-0.1"/><path class="c" d="m363.5 196.2l-19.4-0.1"/><path class="c" d="m363.5 199.2l-19.4-0.1"/><path class="c" d="m363.5 202.2l-19.4-0.1"/><path class="c" d="m363.5 205.2l-19.4-0.1"/><path class="c" d="m363.5 208.1l-19.4 0.1"/><path class="c" d="m363.5 211.1l-19.4 0.1"/><path class="c" d="m363.5 214.1l-19.4 0.1"/><path class="c" d="m363.5 217.1l-19.4 0.1"/><path class="c" d="m363.5 220.1l-19.4 0.1"/><path class="c" d="m363.5 223.1l-19.4 0.1"/><path class="c" d="m363.5 226.1l-19.4 0.1"/><path class="c" d="m363.5 229.1l-19.4 0.1"/><path class="c" d="m339.9 193.1h-19.4"/><path class="c" d="m339.9 196.1h-19.4"/><path class="c" d="m339.9 199.1h-19.4"/><path class="c" d="m339.9 202.1h-19.4"/><path class="c" d="m339.9 205l-19.4 0.2"/><path class="c" d="m339.9 208l-19.4 0.2"/><path class="c" d="m339.9 211l-19.4 0.2"/><path class="c" d="m339.9 214l-19.4 0.2"/><path class="c" d="m339.9 217l-19.4 0.2"/><path class="c" d="m339.9 220l-19.4 0.2"/><path class="c" d="m339.9 223l-19.4 0.2"/><path class="c" d="m339.9 226l-19.4 0.2"/><path class="c" d="m339.9 229l-19.4 0.2"/><path class="c" d="m361.5 194.6h-39.6"/><path class="c" d="m361.5 197.6h-39.6"/><path class="c" d="m361.5 200.6h-39.6"/><path class="c" d="m361.5 203.6h-39.6"/><path class="c" d="m361.5 206.6h-39.6"/><path class="c" d="m361.5 209.6h-39.6"/><path class="c" d="m361.5 212.6h-39.6"/><path class="c" d="m361.5 215.6h-39.6"/><path class="c" d="m361.5 218.6h-39.6"/><path class="c" d="m361.5 221.6h-39.6"/><path class="c" d="m361.5 224.6h-39.6"/><path class="c" d="m361.5 227.6h-39.6"/><path class="c" d="m361.5 191.6h-39.6"/><path class="c" d="m363.2 189.8h-42.5"/><path  d="m343 240.6h-1.8v-13h1.8z"/><path class="a" d="m409.5 171.6v43"/><path class="b" d="m399.1 211.2h-11.3v-43.2h43.2v43.2h-10.7"/><path class="c" d="m431 173.2l-19.5-0.1"/><path class="c" d="m431 176.2l-19.5-0.1"/><path class="c" d="m431 179.2l-19.5-0.1"/><path class="c" d="m431 182.2l-19.5-0.1"/><path class="c" d="m431 185.2l-19.5-0.1"/><path class="c" d="m431 188.1l-19.5 0.1"/><path class="c" d="m431 191.1l-19.5 0.1"/><path class="c" d="m431 194.1l-19.5 0.1"/><path class="c" d="m431 197.1l-19.5 0.1"/><path class="c" d="m431 200.1l-19.5 0.1"/><path class="c" d="m431 203.1l-19.5 0.1"/><path class="c" d="m431 206.1l-19.5 0.1"/><path class="c" d="m431 209.1l-19.5 0.1"/><path class="c" d="m407.4 173.1h-19.5"/><path class="c" d="m407.4 176.1h-19.5"/><path class="c" d="m407.4 179.1h-19.5"/><path class="c" d="m407.4 182.1h-19.5"/><path class="c" d="m407.4 185.1l-19.5 0.1"/><path class="c" d="m407.4 188.1l-19.5 0.1"/><path class="c" d="m407.4 191.1l-19.5 0.1"/><path class="c" d="m407.4 194.1l-19.5 0.1"/><path class="c" d="m407.4 197.1l-19.5 0.1"/><path class="c" d="m407.4 200.1l-19.5 0.1"/><path class="c" d="m407.4 203.1l-19.5 0.1"/><path class="c" d="m407.4 206.1l-19.5 0.1"/><path class="c" d="m407.4 209.1l-19.5 0.1"/><path class="c" d="m429 174.6h-39.6"/><path class="c" d="m429 177.6h-39.6"/><path class="c" d="m429 180.6h-39.6"/><path class="c" d="m429 183.6h-39.6"/><path class="c" d="m429 186.6h-39.6"/><path class="c" d="m429 189.6h-39.6"/><path class="c" d="m429 192.6h-39.6"/><path class="c" d="m429 195.6h-39.6"/><path class="c" d="m429 198.6h-39.6"/><path class="c" d="m429 201.6h-39.6"/><path class="c" d="m429 204.6h-39.6"/><path class="c" d="m429 207.6h-39.6"/><path class="c" d="m429 171.6h-39.6"/><path class="c" d="m430.6 169.8h-42.5"/><path  d="m410.4 220.6h-1.8v-13h1.8z"/><path class="a" d="m481.6 145.5v43"/><path class="b" d="m471.2 185.1h-11.3v-43.2h43.2v43.2h-10.7"/><path class="c" d="m503.1 147.1l-19.5-0.1"/><path class="c" d="m503.1 150.1l-19.5-0.1"/><path class="c" d="m503.1 153.1l-19.5-0.1"/><path class="c" d="m503.1 156.1l-19.5-0.1"/><path class="c" d="m503.1 159.1l-19.5-0.1"/><path class="c" d="m503.1 162l-19.5 0.1"/><path class="c" d="m503.1 165l-19.5 0.1"/><path class="c" d="m503.1 168l-19.5 0.1"/><path class="c" d="m503.1 171l-19.5 0.1"/><path class="c" d="m503.1 174l-19.5 0.1"/><path class="c" d="m503.1 177l-19.5 0.1"/><path class="c" d="m503.1 180l-19.5 0.1"/><path class="c" d="m503.1 183l-19.5 0.1"/><path class="c" d="m479.5 147h-19.5"/><path class="c" d="m479.5 150h-19.5"/><path class="c" d="m479.5 153h-19.5"/><path class="c" d="m479.5 156h-19.5"/><path class="c" d="m479.5 159l-19.5 0.1"/><path class="c" d="m479.5 162l-19.5 0.1"/><path class="c" d="m479.5 165l-19.5 0.1"/><path class="c" d="m479.5 168l-19.5 0.1"/><path class="c" d="m479.5 171l-19.5 0.1"/><path class="c" d="m479.5 174l-19.5 0.1"/><path class="c" d="m479.5 177l-19.5 0.1"/><path class="c" d="m479.5 180l-19.5 0.1"/><path class="c" d="m479.5 183l-19.5 0.1"/><path class="c" d="m501.1 148.5h-39.6"/><path class="c" d="m501.1 151.5h-39.6"/><path class="c" d="m501.1 154.5h-39.6"/><path class="c" d="m501.1 157.5h-39.6"/><path class="c" d="m501.1 160.5h-39.6"/><path class="c" d="m501.1 163.5h-39.6"/><path class="c" d="m501.1 166.5h-39.6"/><path class="c" d="m501.1 169.5h-39.6"/><path class="c" d="m501.1 172.5h-39.6"/><path class="c" d="m501.1 175.5h-39.6"/><path class="c" d="m501.1 178.5h-39.6"/><path class="c" d="m501.1 181.5h-39.6"/><path class="c" d="m501.1 145.5h-39.6"/><path class="c" d="m502.7 143.7h-42.5"/><path  d="m482.5 194.5h-1.8v-13h1.8z"/><path class="a" d="m402.1 245.2v43"/><path class="b" d="m391.7 284.8h-11.3v-43.2h43.2v43.2h-10.7"/><path class="c" d="m423.5 246.7l-19.4-0.1"/><path class="c" d="m423.5 249.7l-19.4-0.1"/><path class="c" d="m423.5 252.7l-19.4-0.1"/><path class="c" d="m423.5 255.7l-19.4-0.1"/><path class="c" d="m423.5 258.7l-19.4-0.1"/><path class="c" d="m423.5 261.6l-19.4 0.1"/><path class="c" d="m423.5 264.6l-19.4 0.1"/><path class="c" d="m423.5 267.6l-19.4 0.1"/><path class="c" d="m423.5 270.6l-19.4 0.1"/><path class="c" d="m423.5 273.6l-19.4 0.1"/><path class="c" d="m423.5 276.6l-19.4 0.1"/><path class="c" d="m423.5 279.6l-19.4 0.1"/><path class="c" d="m423.5 282.6l-19.4 0.1"/><path class="c" d="m399.9 246.6l-19.4 0.1"/><path class="c" d="m399.9 249.6l-19.4 0.1"/><path class="c" d="m399.9 252.6l-19.4 0.1"/><path class="c" d="m399.9 255.6l-19.4 0.1"/><path class="c" d="m399.9 258.6l-19.4 0.1"/><path class="c" d="m399.9 261.6l-19.4 0.1"/><path class="c" d="m399.9 264.6l-19.4 0.1"/><path class="c" d="m399.9 267.6l-19.4 0.1"/><path class="c" d="m399.9 270.6l-19.4 0.1"/><path class="c" d="m399.9 273.6l-19.4 0.1"/><path class="c" d="m399.9 276.6l-19.4 0.1"/><path class="c" d="m399.9 279.6l-19.4 0.1"/><path class="c" d="m399.9 282.6l-19.4 0.1"/><path class="c" d="m421.5 248.1h-39.6"/><path class="c" d="m421.5 251.1h-39.6"/><path class="c" d="m421.5 254.1h-39.6"/><path class="c" d="m421.5 257.1h-39.6"/><path class="c" d="m421.5 260.1h-39.6"/><path class="c" d="m421.5 263.1h-39.6"/><path class="c" d="m421.5 266.1h-39.6"/><path class="c" d="m421.5 269.1h-39.6"/><path class="c" d="m421.5 272.1h-39.6"/><path class="c" d="m421.5 275.1h-39.6"/><path class="c" d="m421.5 278.1h-39.6"/><path class="c" d="m421.5 281.1h-39.6"/><path class="c" d="m421.5 245.1h-39.6"/><path class="c" d="m423.2 243.3h-42.5"/><path  d="m403 294.2h-1.8v-13h1.8z"/><path class="a" d="m465.6 217.7v43"/><path class="b" d="m455.2 257.3h-11.3v-43.2h43.2v43.2h-10.7"/><path class="c" d="m487.1 219.2l-19.5-0.1"/><path class="c" d="m487.1 222.2l-19.5-0.1"/><path class="c" d="m487.1 225.2l-19.5-0.1"/><path class="c" d="m487.1 228.2l-19.5-0.1"/><path class="c" d="m487.1 231.2l-19.5-0.1"/><path class="c" d="m487.1 234.1l-19.5 0.1"/><path class="e" d=""/><path class="d" d="m471.4 345.5l48.9-103.9"/><path class="c" d="m487.1 237.1l-19.5 0.1"/><path class="c" d="m487.1 240.1l-19.5 0.1"/><path class="c" d="m487.1 243.1l-19.5 0.1"/><path class="c" d="m487.1 246.1l-19.5 0.1"/><path class="c" d="m487.1 249.1l-19.5 0.1"/><path class="c" d="m487.1 252.1l-19.5 0.1"/><path class="c" d="m487.1 255.1l-19.5 0.1"/><path class="c" d="m463.4 219.2h-19.4"/><path class="c" d="m463.4 222.2h-19.4"/><path class="c" d="m463.4 225.2h-19.4"/><path class="c" d="m463.4 228.2h-19.4"/><path class="c" d="m463.4 231.1l-19.4 0.1"/><path class="c" d="m463.4 234.1l-19.4 0.1"/><path class="c" d="m463.4 237.1l-19.4 0.1"/><path class="c" d="m463.4 240.1l-19.4 0.1"/><path class="c" d="m463.4 243.1l-19.4 0.1"/><path class="c" d="m463.4 246.1l-19.4 0.1"/><path class="c" d="m463.4 249.1l-19.4 0.1"/><path class="c" d="m463.4 252.1l-19.4 0.1"/><path class="c" d="m463.4 255.1l-19.4 0.1"/><path class="c" d="m485 220.6h-39.6"/><path class="c" d="m485 223.6h-39.6"/><path class="c" d="m485 226.6h-39.6"/><path class="c" d="m485 229.6h-39.6"/><path class="c" d="m485 232.6h-39.6"/><path class="c" d="m485 235.6h-39.6"/><path class="c" d="m485 238.6h-39.6"/><path class="c" d="m485 241.6h-39.6"/><path class="c" d="m485 244.6h-39.6"/><path class="c" d="m485 247.6h-39.6"/><path class="c" d="m485 250.6h-39.6"/><path class="c" d="m485 253.6h-39.6"/><path class="c" d="m485 217.6h-39.6"/><path class="c" d="m486.7 215.8l-42.5 0.1"/><path  d="m466.5 266.7h-1.8v-13h1.8z"/><path class="a" d="m453.8 79.7v43"/><path class="b" d="m443.4 119.3h-11.3v-43.2h43.2v43.2h-10.7"/><path class="c" d="m475.3 81.3l-19.4-0.1"/><path class="c" d="m475.3 84.3l-19.4-0.1"/><path class="c" d="m475.3 87.3l-19.4-0.1"/><path class="c" d="m475.3 90.3l-19.4-0.1"/><path class="c" d="m475.3 93.3l-19.4-0.1"/><path class="c" d="m475.3 96.2l-19.4 0.1"/><path class="c" d="m475.3 99.2l-19.4 0.1"/><path class="c" d="m475.3 102.2l-19.4 0.1"/><path class="c" d="m475.3 105.2l-19.4 0.1"/><path class="c" d="m475.3 108.2l-19.4 0.1"/><path class="c" d="m475.3 111.2l-19.4 0.1"/><path class="c" d="m475.3 114.2l-19.4 0.1"/><path class="c" d="m475.3 117.2l-19.4 0.1"/><path class="c" d="m451.7 81.2h-19.5"/><path class="c" d="m451.7 84.2h-19.5"/><path class="c" d="m451.7 87.2h-19.5"/><path class="c" d="m451.7 90.2h-19.5"/><path class="c" d="m451.7 93.2l-19.5 0.1"/><path class="c" d="m451.7 96.2l-19.5 0.1"/><path class="c" d="m451.7 99.2l-19.5 0.1"/><path class="c" d="m451.7 102.2l-19.5 0.1"/><path class="c" d="m451.7 105.2l-19.5 0.1"/><path class="c" d="m451.7 108.2l-19.5 0.1"/><path class="c" d="m451.7 111.2l-19.5 0.1"/><path class="c" d="m451.7 114.2l-19.5 0.1"/><path class="c" d="m451.7 117.2l-19.5 0.1"/><path class="c" d="m473.3 82.7h-39.6"/><path class="c" d="m473.3 85.7h-39.6"/><path class="c" d="m473.3 88.7h-39.6"/><path class="c" d="m473.3 91.7h-39.6"/><path class="c" d="m473.3 94.7h-39.6"/><path class="c" d="m473.3 97.7h-39.6"/><path class="c" d="m473.3 100.7h-39.6"/><path class="c" d="m473.3 103.7h-39.6"/><path class="c" d="m473.3 106.7h-39.6"/><path class="c" d="m473.3 109.7h-39.6"/><path class="c" d="m473.3 112.7h-39.6"/><path class="c" d="m473.3 115.7h-39.6"/><path class="c" d="m473.3 79.7h-39.6"/><path class="c" d="m474.9 77.9h-42.4"/><path  d="m454.7 128.7h-1.8v-13h1.8z"/><path class="a" d="m339.8 279.2v43"/><path class="b" d="m329.3 318.8h-11.3v-43.2h43.2v43.2h-10.7"/><path class="c" d="m361.2 280.7l-19.4-0.1"/><path class="c" d="m361.2 283.7l-19.4-0.1"/><path class="c" d="m361.2 286.7l-19.4-0.1"/><path class="c" d="m361.2 289.7l-19.4-0.1"/><path class="c" d="m361.2 292.7l-19.4-0.1"/><path class="c" d="m361.2 295.6l-19.4 0.1"/><path class="c" d="m361.2 298.6l-19.4 0.1"/><path class="c" d="m361.2 301.6l-19.4 0.1"/><path class="c" d="m361.2 304.6l-19.4 0.1"/><path class="c" d="m361.2 307.6l-19.4 0.1"/><path class="c" d="m361.2 310.6l-19.4 0.1"/><path class="c" d="m361.2 313.6l-19.4 0.1"/><path class="c" d="m361.2 316.6l-19.4 0.1"/><path class="c" d="m337.6 280.7h-19.4"/><path class="c" d="m337.6 283.7h-19.4"/><path class="c" d="m337.6 286.7h-19.4"/><path class="c" d="m337.6 289.7h-19.4"/><path class="c" d="m337.6 292.6l-19.4 0.1"/><path class="c" d="m337.6 295.6l-19.4 0.1"/><path class="c" d="m337.6 298.6l-19.4 0.1"/><path class="c" d="m337.6 301.6l-19.4 0.1"/><path class="c" d="m337.6 304.6l-19.4 0.1"/><path class="c" d="m337.6 307.6l-19.4 0.1"/><path class="c" d="m337.6 310.6l-19.4 0.1"/><path class="c" d="m337.6 313.6l-19.4 0.1"/><path class="c" d="m337.6 316.6l-19.4 0.1"/><path class="c" d="m359.2 282.1h-39.6"/><path class="c" d="m359.2 285.1h-39.6"/><path class="c" d="m359.2 288.1h-39.6"/><path class="c" d="m359.2 291.1h-39.6"/><path class="c" d="m359.2 294.1h-39.6"/><path class="c" d="m359.2 297.1h-39.6"/><path class="c" d="m359.2 300.1h-39.6"/><path class="c" d="m359.2 303.1h-39.6"/><path class="c" d="m359.2 306.1h-39.6"/><path class="c" d="m359.2 309.1h-39.6"/><path class="c" d="m359.2 312.1h-39.6"/><path class="c" d="m359.2 315.1h-39.6"/><path class="c" d="m359.2 279.1h-39.6"/><path class="c" d="m360.9 277.4h-42.5"/><path  d="m340.7 328.2h-1.8v-13h1.8z"/><path class="a" d="m378.6 107.3v43"/><path class="b" d="m368.2 146.9h-11.3v-43.2h43.2v43.2h-10.7"/><path class="c" d="m400 108.9l-19.4-0.2"/><path class="c" d="m400 111.9l-19.4-0.2"/><path class="c" d="m400 114.9l-19.4-0.2"/><path class="c" d="m400 117.9l-19.4-0.2"/><path class="c" d="m400 120.9l-19.4-0.2"/><path class="c" d="m400 123.8h-19.4"/><path class="c" d="m400 126.8h-19.4"/><path class="c" d="m400 129.8h-19.4"/><path class="c" d="m400 132.8h-19.4"/><path class="c" d="m400 135.8h-19.4"/><path class="c" d="m400 138.8h-19.4"/><path class="c" d="m400 141.8h-19.4"/><path class="c" d="m400 144.8h-19.4"/><path class="c" d="m376.4 108.8h-19.4"/><path class="c" d="m376.4 111.8h-19.4"/><path class="c" d="m376.4 114.8h-19.4"/><path class="c" d="m376.4 117.8h-19.4"/><path class="c" d="m376.4 120.7l-19.4 0.2"/><path class="c" d="m376.4 123.7l-19.4 0.2"/><path class="c" d="m376.4 126.7l-19.4 0.2"/><path class="c" d="m376.4 129.7l-19.4 0.2"/><path class="c" d="m376.4 132.7l-19.4 0.2"/><path class="c" d="m376.4 135.7l-19.4 0.2"/><path class="c" d="m376.4 138.7l-19.4 0.2"/><path class="c" d="m376.4 141.7l-19.4 0.2"/><path class="c" d="m376.4 144.7l-19.4 0.2"/><path class="c" d="m398 110.2h-39.6"/><path class="c" d="m398 113.2h-39.6"/><path class="c" d="m398 116.2h-39.6"/><path class="c" d="m398 119.2h-39.6"/><path class="c" d="m398 122.2h-39.6"/><path class="c" d="m398 125.2h-39.6"/><path class="c" d="m398 128.2h-39.6"/><path class="c" d="m398 131.2h-39.6"/><path class="c" d="m398 134.2h-39.6"/><path class="c" d="m398 137.2h-39.6"/><path class="c" d="m398 140.2h-39.6"/><path class="c" d="m398 143.2h-39.6"/><path class="c" d="m398 107.2h-39.6"/><path class="c" d="m399.7 105.5h-42.5"/><path  d="m379.5 156.3h-1.8v-13h1.8z"/><path class="a" d="m422 327.5v43"/><path class="b" d="m411.6 367.1h-11.3v-43.2h43.2v43.2h-10.7"/><path class="c" d="m443.5 329.1l-19.4-0.1"/><path class="c" d="m443.5 332.1l-19.4-0.1"/><path class="c" d="m443.5 335.1l-19.4-0.1"/><path class="c" d="m443.5 338.1l-19.4-0.1"/><path class="c" d="m443.5 341.1l-19.4-0.1"/><path class="c" d="m443.5 344l-19.4 0.1"/><path class="c" d="m443.5 347l-19.4 0.1"/><path class="c" d="m443.5 350l-19.4 0.1"/><path class="c" d="m443.5 353l-19.4 0.1"/><path class="c" d="m443.5 356l-19.4 0.1"/><path class="c" d="m443.5 359l-19.4 0.1"/><path class="c" d="m443.5 362l-19.4 0.1"/><path class="c" d="m443.5 365l-19.4 0.1"/><path class="c" d="m419.9 329h-19.5"/><path class="c" d="m419.9 332h-19.5"/><path class="c" d="m419.9 335h-19.5"/><path class="c" d="m419.9 338h-19.5"/><path class="c" d="m419.9 341l-19.5 0.1"/><path class="c" d="m419.9 344l-19.5 0.1"/><path class="c" d="m419.9 347l-19.5 0.1"/><path class="c" d="m419.9 350l-19.5 0.1"/><path class="c" d="m419.9 353l-19.5 0.1"/><path class="c" d="m419.9 356l-19.5 0.1"/><path class="c" d="m419.9 359l-19.5 0.1"/><path class="c" d="m419.9 362l-19.5 0.1"/><path class="c" d="m419.9 365l-19.5 0.1"/><path class="c" d="m441.5 330.5h-39.6"/><path class="c" d="m441.5 333.5h-39.6"/><path class="c" d="m441.5 336.5h-39.6"/><path class="c" d="m441.5 339.5h-39.6"/><path class="c" d="m441.5 342.5h-39.6"/><path class="c" d="m441.5 345.5h-39.6"/><path class="c" d="m441.5 348.5h-39.6"/><path class="c" d="m441.5 351.5h-39.6"/><path class="c" d="m441.5 354.5h-39.6"/><path class="c" d="m441.5 357.5h-39.6"/><path class="c" d="m441.5 360.5h-39.6"/><path class="c" d="m441.5 363.5h-39.6"/><path class="c" d="m441.5 327.5h-39.6"/><path class="c" d="m443.1 325.7h-42.4"/><path  d="m422.9 376.5h-1.8v-13h1.8z"/><path class="a" d="m335.2 358.2v43"/><path class="b" d="m324.8 397.8h-11.3v-43.2h43.2v43.2h-10.7"/><path class="c" d="m356.7 359.7l-19.5-0.1"/><path class="c" d="m356.7 362.7l-19.5-0.1"/><path class="c" d="m356.7 365.7l-19.5-0.1"/><path class="c" d="m356.7 368.7l-19.5-0.1"/><path class="c" d="m356.7 371.7l-19.5-0.1"/><path class="c" d="m356.7 374.6l-19.5 0.1"/><path class="c" d="m356.7 377.6l-19.5 0.1"/><path class="c" d="m356.7 380.6l-19.5 0.1"/><path class="c" d="m356.7 383.6l-19.5 0.1"/><path class="c" d="m356.7 386.6l-19.5 0.1"/><path class="c" d="m356.7 389.6l-19.5 0.1"/><path class="c" d="m356.7 392.6l-19.5 0.1"/><path class="c" d="m356.7 395.6l-19.5 0.1"/><path class="c" d="m333 359.7h-19.4"/><path class="c" d="m333 362.7h-19.4"/><path class="c" d="m333 365.7h-19.4"/><path class="c" d="m333 368.7h-19.4"/><path class="c" d="m333 371.6l-19.4 0.2"/><path class="c" d="m333 374.6l-19.4 0.2"/><path class="c" d="m333 377.6l-19.4 0.2"/><path class="c" d="m333 380.6l-19.4 0.2"/><path class="c" d="m333 383.6l-19.4 0.2"/><path class="c" d="m333 386.6l-19.4 0.2"/><path class="c" d="m333 389.6l-19.4 0.2"/><path class="c" d="m333 392.6l-19.4 0.2"/><path class="c" d="m333 395.6l-19.4 0.2"/><path class="c" d="m354.6 361.1h-39.6"/><path class="c" d="m354.6 364.1h-39.6"/><path class="c" d="m354.6 367.1h-39.6"/><path class="c" d="m354.6 370.1h-39.6"/><path class="c" d="m354.6 373.1h-39.6"/><path class="c" d="m354.6 376.1h-39.6"/><path class="c" d="m354.6 379.1h-39.6"/><path class="c" d="m354.6 382.1h-39.6"/><path class="c" d="m354.6 385.1h-39.6"/><path class="c" d="m354.6 388.1h-39.6"/><path class="c" d="m354.6 391.1h-39.6"/><path class="c" d="m354.6 394.1h-39.6"/><path class="c" d="m354.6 358.1h-39.6"/><path class="c" d="m356.3 356.4h-42.5"/><path  d="m336.1 407.2h-1.8v-13h1.8z"/><path class="f" d=""/><path class="f" d=""/><path class="g" d=""/><path class="g" d="m287.5 378.3l-1-62-1.9-70.2 6.4-43.5 2.9-15.6 15.6-52.7 13.3-29 18-34.2 11-12.7 20.3-20.9 22-17.4 12.7-5.8 25-7.5 17.3-1.2 22.6 1.2 22.1 8.7 14.5 12.7 15 20.3 16.2 40 7.6 39.4 1.7 41.1-5.2 38.3-19.1 52.1-18 33.6-23.2 53.3-10.4 29.6-9.3 30.7-5.2 48.7-5.8 59.7v59.1l1.2 78.2-6.4 41.1-20.3 38.8-22.6 16.3-18.5 7.5-16.2 1.2-26.3-5.5-37.1-25.5-9.1-27.6 1.7-14.7c0.1-1 0.7-2 1.5-2.6 1.9-1.5 1.1-4.6-1.3-5l-3.2-0.6-287.1-0.5v-56l277.5 0.2 8.5-0.3c2-0.6 2.7-3.1 1.3-4.7l-1.7-1.7c-0.9-1-1.4-2.2-1.4-3.5l-3.9-71.6z"/><path class="h" d="m16.6 629.8l-10.2-0.1v-1.8h10.2"/><path class="h" d="m16.6 627.9v1.9"/><path class="h" d="m16.6 626.9v-0.1h-10.2v-1.9l10.2 0.1"/><path class="h" d="m16.6 625v1.8"/><path class="h" d="m16.6 632.6l-10.2-0.1v-1.8l10.2 0.1"/><path class="h" d="m16.6 630.7v1.9"/><path class="h" d="m16.6 638.4l-10.2-0.1v-1.8h10.2"/><path class="h" d="m16.6 636.5v1.9"/><path class="h" d="m16.6 635.5v-0.1h-10.2v-1.9l10.2 0.1"/><path class="h" d="m16.6 633.6v1.8"/><path class="h" d="m16.6 641.2l-10.2-0.1v-1.8l10.2 0.1"/><path class="h" d="m16.6 639.3v1.9"/><path class="h" d="m16.6 647l-10.2-0.1v-1.8h10.2"/><path class="h" d="m16.6 645.1v1.9"/><path class="h" d="m16.6 644.1v-0.1h-10.2v-1.9l10.2 0.1"/><path class="h" d="m16.6 642.2v1.8"/><path class="h" d="m16.6 649.8l-10.2-0.1v-1.8l10.2 0.1"/><path class="h" d="m16.6 647.9v1.9"/><path class="h" d="m16.6 655.6l-10.2-0.1v-1.8h10.2"/><path class="h" d="m16.6 653.7v1.9"/><path class="h" d="m16.6 652.7v-0.1h-10.2v-1.9l10.2 0.1"/><path class="h" d="m16.6 650.8v1.8"/><path class="h" d="m16.6 658.4h-10.2v-1.9l10.2 0.1"/><path class="h" d="m16.6 656.5v1.9"/><path class="h" d="m16.6 664.2l-10.2-0.1v-1.8h10.2"/><path class="h" d="m16.6 662.3v1.9"/><path class="h" d="m16.6 661.3v-0.1h-10.2v-1.9l10.2 0.1"/><path class="h" d="m16.6 659.4v1.8"/><path class="h" d="m16.6 667h-10.2v-1.9l10.2 0.1"/><path class="h" d="m16.6 665.1v1.9"/><path class="h" d="m16.6 669.9l-10.2-0.1v-1.9l10.2 0.1"/><path class="h" d="m16.6 668v1.8"/><path class="h" d="m16.6 672.7l-10.2-0.1v-1.8h10.2"/><path class="h" d="m16.6 670.8v1.9"/><path class="h" d="m16.6 623.9l-10.2-0.1v-1.8l10.2 0.1"/><path class="h" d="m16.6 622v1.9"/><path class="i" d="m48.7 620.6l-39.6 0.2v3.2l-0.2 49.4 39.9-0.2"/><path class="d" d="m386.1 690.5h-26.6"/><path class="d" d="m442.7 511.2l11.1-103.4 17.6-57.7v-4.6h-27.5"/><path class="d" d="m520.3 241.6l10.6-35.5 4.3-35.1v-7.5h-31.7"/><path class="d" d="m314.2 576.5h-13l-1.8-203-1.8-76.3v-34l-0.9-16.6 6.5-37 7.5-32 17.8-52.3 13.2-27.6h90.4"/><path class="d" d="m442.7 511.2h-13.4"/><path class="d" d="m521.6 237.1l-4.9-1.5h-29.2"/><path class="d" d="m300.6 509.7h13.5"/><path class="d" d="m299.4 375h13.7"/><path class="d" d="m297.6 297.2h19.9"/><path class="d" d="m303.5 208.2l6.1 1.4"/><path class="d" d="m319.8 209.6h-10.2"/><path class="d" d="m356.3 125.3h-11.2l-13.5-6.6"/><path class="d" d="m301.2 576.5l1.7 34.7 3 5.6v2.3l-6.3 5-290.7-1.1"/><path class="d" d="m435.2 690.8h-4.6"/><path class="g" d="m335.8 599.9v10.1l-35.8 16.9-290.9-1"/><path class="d" d="m307.9 689.8l7.9 0.1"/><path class="e" d="m337.2 664.8v-9.1h-2.6l-24.1 12.7-301.6 0.5"/><path class="e" d="m408.3 667.2l0.1-18-68 0.3-31.5 16.6h-299.9"/><path class="e" d="m407.5 599.8v9.9l-99.5 54-299.1-0.5"/><path class="e" d="m335.7 534.4v7.5l23.9 5.6v55.2l-59.2 27.3-291.5-1.2"/><path class="e" d="m407.5 534.7v7.1l-24.1 5.5v72.7l-76.3 41.3-298.2-1"/><path class="e" d="m422 370.5v9l-41.2 106.6-0.3 132.3-74.3 40-297.2-0.9"/><path class="e" d="m335.2 401.2v6.7l26 77.9 0.6 117.9-60.5 29.8-291.9-1.4"/><path class="e" d="m339.8 322.2v8.3l21.7 17.4 0.2 132.5 1.9 5.6v118.7l-62.1 31.6-292.4-1.8"/><path class="e" d="m402.1 288.2v7.4l-16.1 12.7 1.1 130.1-15.5 44.6-0.3 129-68.2 35.6-294.2-1.6"/><path class="j" d="m465.6 260.7v8.4l-43 41.5h-17.9l-8.3 6-0.4 122.6-17.8 45.9v131.6l-73.1 39-296.2-1.1"/><path class="j" d="m481.6 188.5v7.6l-43.4 13.1 0.3 80.6-18.3 17.7-18.1-0.1-8.6 6.5-0.4 125.4-17.4 44.9v130.7l-71.3 37.9-295.5-1.1"/><path class="j" d="m453.8 122.7v21l-18.1 63.9-0.5 80.6-17 16h-18.3l-9.7 7.1 0.1 127.2-16.6 45.2-0.5 130-69.6 36.8-294.7-1.6"/><path class="j" d="m378.6 150.3v7.2l-12.1 33.6 1.1 292.8-0.2 124-65.4 34.5-293.1-2.1"/><path class="j" d=""/><path class="j" d="m409.5 214.6v7.6l-33.1 14.9 0.1 203.6-6.8 41.9-0.4 127.2-67.1 35.4-293.3-2.1"/><path class="j" d="m342.1 234.1v8.5l22.3 28 0.4 210.6 1 3.5-0.3 121.7-63.8 32.9-292.6-1.9"/></svg>