{
    "asset" : {
        "generator" : "Khronos glTF Blender I/O v1.7.33",
        "version" : "2.0"
    },
    "scene" : 0,
    "scenes" : [
        {
            "name" : "Scene",
            "nodes" : [
                0,
                1
            ]
        }
    ],
    "nodes" : [
        {
            "mesh" : 0,
            "name" : "side mission",
            "rotation" : [
                0,
                0,
                0.7071068286895752,
                0.7071067094802856
            ],
            "scale" : [
                0.02467714063823223,
                0.02467714063823223,
                0.02467714063823223
            ]
        },
        {
            "mesh" : 1,
            "name" : "side mission lid",
            "rotation" : [
                0,
                0,
                0.7071068286895752,
                0.7071067094802856
            ],
            "scale" : [
                0.02467714063823223,
                0.02467714063823223,
                0.02467714063823223
            ]
        }
    ],
    "meshes" : [
        {
            "name" : "side mission",
            "primitives" : [
                {
                    "attributes" : {
                        "POSITION" : 0,
                        "NORMAL" : 1
                    },
                    "indices" : 2
                }
            ]
        },
        {
            "name" : "side mission lid",
            "primitives" : [
                {
                    "attributes" : {
                        "POSITION" : 3,
                        "NORMAL" : 4
                    },
                    "indices" : 5
                }
            ]
        }
    ],
    "accessors" : [
        {
            "bufferView" : 0,
            "componentType" : 5126,
            "count" : 8985,
            "max" : [
                29.302431106567383,
                17.543071746826172,
                10.725701332092285
            ],
            "min" : [
                -24.40104866027832,
                -17.456928253173828,
                -7.274298667907715
            ],
            "type" : "VEC3"
        },
        {
            "bufferView" : 1,
            "componentType" : 5126,
            "count" : 8985,
            "type" : "VEC3"
        },
        {
            "bufferView" : 2,
            "componentType" : 5123,
            "count" : 9372,
            "type" : "SCALAR"
        },
        {
            "bufferView" : 3,
            "componentType" : 5126,
            "count" : 861,
            "max" : [
                22.450693130493164,
                17.543071746826172,
                11.725701332092285
            ],
            "min" : [
                -17.549306869506836,
                -17.456928253173828,
                7.725701332092285
            ],
            "type" : "VEC3"
        },
        {
            "bufferView" : 4,
            "componentType" : 5126,
            "count" : 861,
            "type" : "VEC3"
        },
        {
            "bufferView" : 5,
            "componentType" : 5123,
            "count" : 1092,
            "type" : "SCALAR"
        }
    ],
    "bufferViews" : [
        {
            "buffer" : 0,
            "byteLength" : 107820,
            "byteOffset" : 0
        },
        {
            "buffer" : 0,
            "byteLength" : 107820,
            "byteOffset" : 107820
        },
        {
            "buffer" : 0,
            "byteLength" : 18744,
            "byteOffset" : 215640
        },
        {
            "buffer" : 0,
            "byteLength" : 10332,
            "byteOffset" : 234384
        },
        {
            "buffer" : 0,
            "byteLength" : 10332,
            "byteOffset" : 244716
        },
        {
            "buffer" : 0,
            "byteLength" : 2184,
            "byteOffset" : 255048
        }
    ],
    "buffers" : [
        {
            "byteLength" : 257232,
            "uri" : "data:application/octet-stream;base64,"
        }
    ]
}
