{
    "asset" : {
        "generator" : "Khronos glTF Blender I/O v1.7.33",
        "version" : "2.0"
    },
    "scene" : 0,
    "scenes" : [
        {
            "name" : "Scene",
            "nodes" : [
                0,
                1
            ]
        }
    ],
    "nodes" : [
        {
            "mesh" : 0,
            "name" : "side mission",
            "scale" : [
                0.02467714063823223,
                0.02467714063823223,
                0.02467714063823223
            ]
        },
        {
            "mesh" : 1,
            "name" : "side mission lid",
            "scale" : [
                0.02467714063823223,
                0.02467714063823223,
                0.02467714063823223
            ]
        }
    ],
    "meshes" : [
        {
            "name" : "side mission",
            "primitives" : [
                {
                    "attributes" : {
                        "POSITION" : 0,
                        "NORMAL" : 1
                    },
                    "indices" : 2
                }
            ]
        },
        {
            "name" : "side mission lid",
            "primitives" : [
                {
                    "attributes" : {
                        "POSITION" : 3,
                        "NORMAL" : 4
                    },
                    "indices" : 5
                }
            ]
        }
    ],
    "accessors" : [
        {
            "bufferView" : 0,
            "componentType" : 5126,
            "count" : 9083,
            "max" : [
                17.45693016052246,
                29.302431106567383,
                10.725701332092285
            ],
            "min" : [
                -17.543075561523438,
                -24.40104866027832,
                -7.274298667907715
            ],
            "type" : "VEC3"
        },
        {
            "bufferView" : 1,
            "componentType" : 5126,
            "count" : 9083,
            "type" : "VEC3"
        },
        {
            "bufferView" : 2,
            "componentType" : 5123,
            "count" : 9372,
            "type" : "SCALAR"
        },
        {
            "bufferView" : 3,
            "componentType" : 5126,
            "count" : 901,
            "max" : [
                17.45693016052246,
                22.450695037841797,
                11.725701332092285
            ],
            "min" : [
                -17.543075561523438,
                -17.54930877685547,
                7.725701332092285
            ],
            "type" : "VEC3"
        },
        {
            "bufferView" : 4,
            "componentType" : 5126,
            "count" : 901,
            "type" : "VEC3"
        },
        {
            "bufferView" : 5,
            "componentType" : 5123,
            "count" : 1092,
            "type" : "SCALAR"
        }
    ],
    "bufferViews" : [
        {
            "buffer" : 0,
            "byteLength" : 108996,
            "byteOffset" : 0
        },
        {
            "buffer" : 0,
            "byteLength" : 108996,
            "byteOffset" : 108996
        },
        {
            "buffer" : 0,
            "byteLength" : 18744,
            "byteOffset" : 217992
        },
        {
            "buffer" : 0,
            "byteLength" : 10812,
            "byteOffset" : 236736
        },
        {
            "buffer" : 0,
            "byteLength" : 10812,
            "byteOffset" : 247548
        },
        {
            "buffer" : 0,
            "byteLength" : 2184,
            "byteOffset" : 258360
        }
    ],
    "buffers" : [
        {
            "byteLength" : 260544,
            "uri" : "data:application/octet-stream;base64,"
        }
    ]
}
